<svg width="1157" height="257" viewBox="0 0 1157 257" fill="none" xmlns="http://www.w3.org/2000/svg">
<path fill-rule="evenodd" clip-rule="evenodd" d="M322.22 76.92C311.03 76.92 302.22 81.72 294.52 88.65L305.44 25.51L265.44 43.89L234.57 219.72H270.81L272.4 211.19C281.46 218.39 289.19 222.65 303.31 222.65C345.13 222.65 368.31 178.16 368.31 130.47C368.31 97.17 351.79 76.92 322.22 76.92ZM302.51 188C292.12 188 285.99 184 279.06 176L288.39 123.25C294.25 117.12 301.44 111.53 311.03 111.53C323.55 111.53 330.48 120.05 330.48 136.53C330.48 164.57 319.82 188 302.51 188Z" fill="#48EFFA"/>
<path fill-rule="evenodd" clip-rule="evenodd" d="M454.21 178.69C449.95 184.55 440.89 191.48 429.44 191.48C416.12 191.48 409.19 185.89 409.19 175.23C409.19 164.04 416.38 155.23 431.04 155.23C443.04 155.23 451.55 157.89 457.41 161.09L454.21 178.67V178.69ZM444.09 76.92C426.51 76.92 407.86 82.52 398 88.38L407.59 114.49C417.518 109.834 428.335 107.378 439.3 107.29C456.88 107.29 463.54 112.09 463.54 121.95C463.577 123.465 463.487 124.98 463.27 126.48L462.47 132.07C457.41 129.41 442.23 126.48 429.47 126.48C394.3 126.48 371.66 147.79 371.66 179.23C371.66 209.6 394.04 222.65 418.81 222.65C431.87 222.65 441.72 217.06 448.92 210.4L447 219.72H483.77L499.48 130.21C500.209 126.343 500.567 122.415 500.55 118.48C500.57 89.18 477.13 76.92 444.09 76.92Z" fill="#48EFFA"/>
<path fill-rule="evenodd" clip-rule="evenodd" d="M599 76.92C587.237 76.7057 575.858 81.1066 567.3 89.18L578.49 25.51L538.49 43.89L507.59 219.72H544.35L557.67 143.26C561.67 120.08 571.26 111.56 585.91 111.56C598.91 111.56 605.36 118.22 605.36 131.8C605.346 135.909 604.988 140.01 604.29 144.06L591 219.72H627.77L641.62 140.86C642.852 134.093 643.474 127.229 643.48 120.35C643.48 92.38 629.1 76.92 599 76.92Z" fill="#48EFFA"/>
<path fill-rule="evenodd" clip-rule="evenodd" d="M701.15 26.31C696.999 26.3199 692.943 27.5599 689.497 29.8734C686.05 32.1869 683.366 35.4701 681.784 39.3082C680.202 43.1463 679.794 47.3672 680.61 51.4375C681.425 55.5078 683.429 59.2449 686.368 62.1768C689.307 65.1087 693.049 67.1038 697.121 67.9101C701.194 68.7163 705.413 68.2975 709.248 66.7066C713.082 65.1157 716.359 62.4241 718.664 58.9718C720.97 55.5194 722.2 51.4613 722.2 47.31C722.132 41.7528 719.891 36.4431 715.957 32.518C712.022 28.5929 706.707 26.3645 701.15 26.31V26.31ZM677.44 79.85L652.93 219.72H689.69L714.2 79.85H677.44Z" fill="#48EFFA"/>
<path fill-rule="evenodd" clip-rule="evenodd" d="M786 76.92C751.36 76.92 731.65 93.18 731.65 122.21C731.65 143.79 747.1 153.65 778.8 166.21C792.66 171.54 796.39 175 796.39 180.33C796.39 186.99 791.06 191.25 781.47 191.25C760.16 191.25 743.64 183.79 730.58 175L713.26 201.6C725.78 211.99 749.49 222.65 777.46 222.65C808.63 222.65 833.41 208.8 833.41 176.29C833.41 154.98 817.96 144.29 794.51 134.47C770.8 124.61 768.67 121.68 768.67 117.15C768.67 112.09 772.93 108.36 783.32 108.36C799.04 108.36 816.32 115.55 827.32 122.75L844.1 93.75C826.712 82.7645 806.568 76.9293 786 76.92V76.92Z" fill="#48EFFA"/>
<path d="M852.2 221.45C860.379 221.45 867.01 214.819 867.01 206.64C867.01 198.461 860.379 191.83 852.2 191.83C844.021 191.83 837.39 198.461 837.39 206.64C837.39 214.819 844.021 221.45 852.2 221.45Z" fill="white"/>
<path fill-rule="evenodd" clip-rule="evenodd" d="M920 135.27C893.06 135.27 875.41 158.59 875.41 184.59C875.41 207.59 890.54 221.45 910.07 221.45C922.07 221.45 932.44 217.04 944.26 205.38L932 191.05C924.91 197.35 918.77 200.5 912.78 200.5C903.78 200.5 897.66 194.2 897.66 182.85C897.66 169.3 905.66 156.23 917.66 156.23C925.54 156.23 930.43 161.11 935.66 169.46L953 155.75C946.64 143.94 937.19 135.27 920 135.27Z" fill="white"/>
<path fill-rule="evenodd" clip-rule="evenodd" d="M983.42 221.45C1008.95 221.45 1026.75 197.98 1026.75 170.88C1026.75 148.98 1013.67 135.27 994.29 135.27C968.77 135.27 950.97 158.75 950.97 185.85C950.97 207.75 964.04 221.45 983.42 221.45V221.45ZM991.93 156.23C999.02 156.23 1004.38 162.06 1004.38 172.3C1004.38 190.1 995.55 200.5 985.79 200.5C978.7 200.5 973.34 194.67 973.34 184.43C973.34 166.63 982.16 156.23 991.93 156.23Z" fill="white"/>
<path fill-rule="evenodd" clip-rule="evenodd" d="M1131.12 135.27C1118.04 135.27 1109.38 141.89 1104.65 145.83C1099.77 138.74 1092.99 135.27 1082.43 135.27C1075.79 135.31 1069.41 137.906 1064.63 142.52L1065.58 137.01H1043.84L1029.34 219.72H1051.08L1059 174.5C1061.21 161.43 1066.56 155.75 1074.44 155.75C1081.53 155.75 1086.1 158.59 1086.1 167.26C1086.03 169.849 1085.77 172.43 1085.31 174.98L1077.43 219.72H1099.33L1107.21 174.5C1109.42 161.43 1114.77 155.75 1122.65 155.75C1129.74 155.75 1134.31 158.59 1134.31 167.1C1134.24 169.743 1133.98 172.376 1133.52 174.98L1125.64 219.72H1147.23L1155.42 173.08C1156.15 169.239 1156.52 165.339 1156.52 161.43C1156.48 144.57 1148 135.27 1131.12 135.27Z" fill="white"/>
<path fill-rule="evenodd" clip-rule="evenodd" d="M30.34 60.87L108 32L185.61 3.05999C193.244 0.0966122 201.538 -0.747613 209.613 0.616671C217.687 1.98096 225.243 5.50299 231.48 10.81C237.865 15.9368 242.744 22.6949 245.601 30.3686C248.459 38.0423 249.187 46.346 247.71 54.4L233.93 136.09L220.14 217.77C218.782 225.822 215.328 233.375 210.126 239.67C204.923 245.964 198.155 250.779 190.503 253.628C182.85 256.478 174.582 257.263 166.53 255.905C158.477 254.547 150.924 251.093 144.63 245.89L113 219.72H208.15L214.01 186.42H171.35C164.43 186.42 153.5 186.68 148.17 186.95C152.7 182.69 162.83 173.95 169.75 166.95L228.1 106.5L232.63 79.85H122.63L116.77 113.16H157.77C164.7 113.16 174.82 112.89 179.89 112.62C175.36 116.89 166.03 125.68 159.11 132.62L98.11 193.1L96 205.65L80.78 193.1L16.93 140.32C10.5461 135.19 5.66749 128.43 2.81047 120.755C-0.0465443 113.08 -0.775759 104.775 0.699986 96.72C1.95011 88.6275 5.36468 81.0235 10.5823 74.7127C15.8 68.4018 22.6267 63.6189 30.34 60.87V60.87Z" fill="white"/>
</svg>
